<?xml version="1.0" encoding="UTF-8" standalone="no"?>
<svg
   width="41"
   height="41"
   viewBox="0 0 40.999245 41.000852"
   version="1.1"
   id="svg2063"
   xmlns="http://www.w3.org/2000/svg"
   xmlns:svg="http://www.w3.org/2000/svg">
  <defs
     id="defs2067" />
  <path
     fill="#d70751"
     d="m 19.539771,22.551742 c -0.612633,0.0082 0.115228,0.314928 0.91526,0.438357 0.221844,-0.173046 0.421134,-0.346913 0.599921,-0.516678 -0.497406,0.121788 -1.004243,0.124658 -1.515181,0.07832 m 3.287471,-0.819715 c 0.366186,-0.503966 0.631906,-1.05509 0.725811,-1.625077 -0.08242,0.405962 -0.301806,0.756565 -0.510118,1.127262 -1.145304,0.7213 -0.108256,-0.428105 -8.19e-4,-0.865642 -1.231008,1.551266 -0.169766,0.930022 -0.214873,1.363457 m 1.215015,-3.159121 c 0.07463,-1.103478 -0.216923,-0.754104 -0.314928,-0.333791 0.113998,0.05987 0.204621,0.778299 0.314928,0.333791 M 17.215538,3.4912177 c 0.32723,0.058229 0.706947,0.1033356 0.652409,0.1816575 0.359215,-0.079142 0.439997,-0.1504929 -0.652409,-0.1816575 m 0.652819,0.1816575 -0.230045,0.047975 0.214463,-0.019684 0.01558,-0.028296"
     id="path2053"
     style="stroke-width:0.410063" />
  <path
     fill="#d70751"
     d="m 31.820626,17.857168 c 0.0369,0.990711 -0.289094,1.472125 -0.583929,2.323414 l -0.530211,0.26367 c -0.433435,0.842269 0.04305,0.534722 -0.26736,1.204354 -0.677423,0.601561 -2.052773,1.881776 -2.49318,1.999054 -0.321899,-0.007 0.217743,-0.379718 0.288274,-0.52529 -0.905828,0.621655 -0.727041,0.933302 -2.112642,1.31179 l -0.04019,-0.09062 c -3.41582,1.607445 -8.161063,-1.57751 -8.098734,-5.922532 -0.03608,0.275562 -0.103745,0.206671 -0.179197,0.317388 -0.176327,-2.23525 1.032537,-4.480342 3.071368,-5.398472 1.994133,-0.98661 4.3319,-0.582289 5.759327,0.750004 -0.78404,-1.027616 -2.345967,-2.117153 -4.195759,-2.016277 -1.812886,0.02952 -3.509315,1.18139 -4.075201,2.432491 -0.928381,0.584339 -1.036638,2.253703 -1.440959,2.55961 -0.544973,4.002209 1.023926,5.730622 3.67826,7.764942 0.416623,0.281303 0.117278,0.32436 0.173046,0.538412 -0.881634,-0.412523 -1.688637,-1.035818 -2.352938,-1.798944 0.352654,0.515449 0.732782,1.016545 1.224446,1.410205 -0.832016,-0.280893 -1.942875,-2.014637 -2.266415,-2.085168 1.433169,2.566171 5.813866,4.500436 8.108985,3.54048 -1.062062,0.03937 -2.410757,0.02173 -3.603219,-0.419084 -0.502326,-0.25793 -1.18262,-0.791421 -1.060831,-0.891066 3.131237,1.169088 6.364989,0.884915 9.073862,-1.286366 0.689725,-0.537181 1.4426,-1.450391 1.660343,-1.462693 -0.327641,0.492896 0.05618,0.237016 -0.1956,0.672093 0.685624,-1.107579 -0.298936,-0.451069 0.709408,-1.912531 l 0.372336,0.512578 c -0.139421,-0.920181 1.142025,-2.036371 1.011625,-3.490452 0.294015,-0.444508 0.32764,0.478953 0.01599,1.501649 0.432616,-1.134643 0.114408,-1.317121 0.225125,-2.253704 0.119327,0.314927 0.278022,0.649129 0.358804,0.98169 -0.282123,-1.096917 0.288274,-1.846511 0.430156,-2.484158 -0.140242,-0.06151 -0.435077,0.484693 -0.503147,-0.810284 0.01025,-0.562606 0.157054,-0.294835 0.213232,-0.433436 -0.109896,-0.06356 -0.39981,-0.494945 -0.575727,-1.322041 0.126709,-0.19478 0.341172,0.503967 0.515038,0.532261 -0.111942,-0.657334 -0.304261,-1.158841 -0.312463,-1.663628 -0.508477,-1.062062 -0.180017,0.141882 -0.59172,-0.455989 -0.541282,-1.686998 0.448609,-0.39161 0.515859,-1.157607 0.819305,1.187131 1.286366,3.028312 1.501649,3.790618 -0.164025,-0.929611 -0.428516,-1.830519 -0.752055,-2.701902 0.249728,0.105386 -0.401451,-1.9121215 0.32436,-0.576138 C 34.046035,8.2576049 31.508158,5.5962996 29.172853,4.3480693 29.457846,4.6092791 29.818291,4.9373289 29.689532,4.988997 28.527415,4.2980418 28.731626,4.2435037 28.56514,3.9515389 27.619947,3.5664904 27.556797,3.9831127 26.931451,3.9523582 25.14768,3.0059339 24.804047,3.1063994 23.162567,2.5142692 l 0.07463,0.349373 c -1.18139,-0.3936597 -1.37658,0.1484426 -2.653104,8.194e-4 -0.0775,-0.060279 0.409242,-0.2197938 0.810283,-0.2776122 -1.142434,0.150903 -1.089125,-0.2255346 -2.206956,0.041416 0.275152,-0.1931395 0.567116,-0.3214888 0.860721,-0.4855139 -0.931252,0.056588 -2.224179,0.5421023 -1.825188,0.1000553 C 16.703672,2.92105 14.005051,3.8728048 12.49069,5.2928514 L 12.443127,4.9746425 C 11.749301,5.8074793 9.417276,7.4620813 9.2315179,8.5417758 L 9.0457593,8.5848301 C 8.6853145,9.1962325 8.4511691,9.8888285 8.1649455,10.517454 7.6929633,11.322408 7.4727598,10.827462 7.5400099,10.953762 6.6112185,12.836768 6.1490782,14.41879 5.7509077,15.717047 c 0.2837631,0.424415 0.00697,2.55551 0.1139972,4.260959 -0.4658308,8.424323 5.9122811,16.603019 12.8841621,18.490944 1.021875,0.366185 2.541157,0.353066 3.833674,0.389151 -1.524612,-0.436307 -1.721443,-0.230863 -3.207509,-0.748772 -1.071493,-0.5052 -1.306049,-1.081336 -2.065484,-1.740307 l 0.300575,0.531032 c -1.488526,-0.526931 -0.865642,-0.652 -2.076966,-1.035408 l 0.321079,-0.418674 c -0.482643,-0.0369 -1.278165,-0.812744 -1.495498,-1.243719 l -0.52816,0.02091 C 13.196821,33.441586 12.85852,32.87693 12.883534,32.439394 l -0.170586,0.304266 c -0.19314,-0.331741 -2.333665,-2.935227 -1.223217,-2.329155 -0.206261,-0.187808 -0.480593,-0.306317 -0.777888,-0.847189 l 0.225944,-0.257929 c -0.533491,-0.687675 -0.9833292,-1.568899 -0.9488839,-1.862504 0.2849929,0.384639 0.4826429,0.45681 0.6786529,0.52283 -1.349515,-3.34775 -1.4253765,-0.184118 -2.4468423,-3.407619 l 0.2156932,-0.01722 C 8.2711503,24.294329 8.1698644,24.024097 8.0370044,23.757967 l 0.094315,-0.936993 C 7.1602907,21.699043 7.8598576,18.045797 8.0005088,16.042642 c 0.096365,-0.814384 0.8106936,-1.681666 1.353206,-3.041843 l -0.3305103,-0.05659 c 0.6323163,-1.102248 3.6093695,-4.4282658 4.9888195,-4.2576796 0.667992,-0.8389881 -0.13286,-0.00328 -0.26367,-0.2140526 1.467613,-1.5184612 1.928934,-1.0727238 2.919235,-1.3462354 1.067392,-0.6335463 -0.91649,0.2476781 -0.410473,-0.2415267 1.846511,-0.4711618 1.308099,-1.071903 3.716396,-1.3109698 0.254239,0.144342 -0.58926,0.2230741 -0.800852,0.4104728 1.537734,-0.7528747 4.867031,-0.5810585 7.030521,0.4174435 2.508352,1.1731888 5.328351,4.6394478 5.439888,7.9006748 l 0.126709,0.03404 c -0.06397,1.296618 0.19847,2.796216 -0.257109,4.173206 l 0.307957,-0.652413"
     id="path2055"
     style="stroke-width:0.410063" />
  <path
     fill="#d70751"
     d="m 12.851243,23.392371 -0.08652,0.429335 c 0.403091,0.547433 0.72294,1.140383 1.236748,1.566848 -0.369876,-0.7213 -0.644208,-1.019415 -1.150225,-1.996183 m 0.951755,-0.03691 c -0.213232,-0.236196 -0.338712,-0.519959 -0.480593,-0.802082 0.13532,0.496586 0.412522,0.923461 0.669632,1.358127 l -0.189039,-0.556045 m 16.847006,-3.661857 -0.0898,0.226354 c -0.164845,1.171958 -0.52201,2.331615 -1.068213,3.407209 0.603612,-1.134643 0.992762,-2.375902 1.158017,-3.633563 M 17.337326,3.1972041 c 0.413753,-0.1513132 1.017775,-0.083243 1.458182,-0.182888 -0.573267,0.047975 -1.143664,0.076682 -1.70668,0.1484426 l 0.248498,0.034446 M 2.7920012,10.931802 C 2.8875458,11.815076 2.1276999,12.158299 2.960127,11.57519 3.4070949,10.568897 2.7862605,11.297577 2.7920012,10.931802 m -0.979229,4.089963 C 2.0050914,14.432506 2.0395367,14.079032 2.1129377,13.73745 1.582727,14.415693 1.8685404,14.560445 1.8127722,15.021765"
     id="path2057"
     style="stroke-width:0.410063" />
</svg>
