<?xml version="1.0" encoding="UTF-8" standalone="no"?>
<svg
   height="16"
   viewBox="0 -960 640 640"
   width="16"
   version="1.1"
   id="svg4"
   sodipodi:docname="no_traceable.svg"
   inkscape:version="1.2.2 (b0a8486541, 2022-12-01)"
   xmlns:inkscape="http://www.inkscape.org/namespaces/inkscape"
   xmlns:sodipodi="http://sodipodi.sourceforge.net/DTD/sodipodi-0.dtd"
   xmlns="http://www.w3.org/2000/svg"
   xmlns:svg="http://www.w3.org/2000/svg">
  <defs
     id="defs8" />
  <sodipodi:namedview
     id="namedview6"
     pagecolor="#ffffff"
     bordercolor="#000000"
     borderopacity="0.25"
     inkscape:showpageshadow="2"
     inkscape:pageopacity="0.0"
     inkscape:pagecheckerboard="0"
     inkscape:deskcolor="#d1d1d1"
     showgrid="false"
     inkscape:zoom="15.585812"
     inkscape:cx="8.4050802"
     inkscape:cy="8.6938043"
     inkscape:window-width="1366"
     inkscape:window-height="707"
     inkscape:window-x="0"
     inkscape:window-y="0"
     inkscape:window-maximized="1"
     inkscape:current-layer="svg4" />
  <path
     d="m 290.77626,-320 v -58.44749 Q 199.45205,-388.6758 134.06393,-454.06393 68.6758,-519.45205 58.44749,-610.77626 H 0 v -58.44748 h 58.44749 q 10.22831,-91.32421 75.61644,-156.71233 65.38812,-65.38813 156.71233,-75.61644 V -960 h 58.44748 v 58.44749 q 91.32421,10.22831 156.71233,75.61644 65.38813,65.38812 75.61644,156.71233 H 640 v 58.44748 h -58.44749 q -10.22831,91.32421 -75.61644,156.71233 -65.38812,65.38813 -156.71233,75.61644 V -320 Z M 320,-435.43379 q 84.74886,0 144.65753,-59.90868 59.90868,-59.90867 59.90868,-144.65753 0,-84.74886 -59.90868,-144.65753 Q 404.74886,-844.56621 320,-844.56621 q -84.74886,0 -144.65753,59.90868 -59.90868,59.90867 -59.90868,144.65753 0,84.74886 59.90868,144.65753 59.90867,59.90868 144.65753,59.90868 z m 0,-87.67123 q -48.21918,0 -82.55708,-34.3379 -34.3379,-34.3379 -34.3379,-82.55708 0,-48.21918 34.3379,-82.55708 34.3379,-34.3379 82.55708,-34.3379 48.21918,0 82.55708,34.3379 34.3379,34.3379 34.3379,82.55708 0,48.21918 -34.3379,82.55708 -34.3379,34.3379 -82.55708,34.3379 z m 0,-58.44749 q 24.10959,0 41.27854,-17.16895 17.16895,-17.16895 17.16895,-41.27854 0,-24.10959 -17.16895,-41.27854 -17.16895,-17.16895 -41.27854,-17.16895 -24.10959,0 -41.27854,17.16895 -17.16895,17.16895 -17.16895,41.27854 0,24.10959 17.16895,41.27854 17.16895,17.16895 41.27854,17.16895 z M 320,-640 Z"
     id="path2"
     style="stroke-width:0.730594;fill:#ffc89f;fill-opacity:1" />
</svg>
