<?xml version="1.0" encoding="UTF-8" standalone="no"?>
<svg
   height="16"
   viewBox="0 -960 640 640"
   width="16"
   version="1.1"
   id="svg4"
   sodipodi:docname="traceable.svg"
   inkscape:version="1.2.2 (b0a8486541, 2022-12-01)"
   xmlns:inkscape="http://www.inkscape.org/namespaces/inkscape"
   xmlns:sodipodi="http://sodipodi.sourceforge.net/DTD/sodipodi-0.dtd"
   xmlns="http://www.w3.org/2000/svg"
   xmlns:svg="http://www.w3.org/2000/svg">
  <defs
     id="defs8" />
  <sodipodi:namedview
     id="namedview6"
     pagecolor="#ffffff"
     bordercolor="#000000"
     borderopacity="0.25"
     inkscape:showpageshadow="2"
     inkscape:pageopacity="0.0"
     inkscape:pagecheckerboard="0"
     inkscape:deskcolor="#d1d1d1"
     showgrid="false"
     inkscape:zoom="11.020833"
     inkscape:cx="5.1720228"
     inkscape:cy="13.928167"
     inkscape:window-width="1366"
     inkscape:window-height="707"
     inkscape:window-x="0"
     inkscape:window-y="0"
     inkscape:window-maximized="1"
     inkscape:current-layer="svg4" />
  <path
     d="m 58.181818,-465.45454 q -24,0 -41.090909,-17.09091 Q 0,-499.63636 0,-523.63636 q 0,-24 17.090909,-41.09091 17.090909,-17.09091 41.090909,-17.09091 h 7.636362 q 3.27273,0 6.90909,1.45455 l 132.36364,-132.36364 q -1.45455,-3.63636 -1.45455,-6.90909 v -7.63636 q 0,-24 17.09091,-41.09091 17.09091,-17.09091 41.09091,-17.09091 24,0 41.09091,17.09091 Q 320,-751.27272 320,-727.27272 q 0,1.45454 -1.45455,14.54545 l 74.18182,74.18182 Q 396.36364,-640 399.63636,-640 h 15.27273 q 3.27273,0 6.90909,1.45455 l 103.27273,-103.27273 q -1.45455,-3.63636 -1.45455,-6.90909 v -7.63636 q 0,-24 17.09091,-41.09091 17.09091,-17.09091 41.09091,-17.09091 24,0 41.09091,17.09091 Q 640,-780.36363 640,-756.36363 q 0,24 -17.09091,41.09091 -17.09091,17.09091 -41.09091,17.09091 h -7.63636 q -3.27273,0 -6.90909,-1.45455 L 464,-596.36363 q 1.45455,3.63636 1.45455,6.90909 v 7.63636 q 0,24 -17.09091,41.09091 -17.09091,17.09091 -41.09091,17.09091 -24,0 -41.09091,-17.09091 -17.09091,-17.09091 -17.09091,-41.09091 v -7.63636 q 0,-3.27273 1.45454,-6.90909 l -74.18181,-74.18182 q -3.63637,1.45455 -6.90909,1.45455 h -7.63637 q -1.45454,0 -14.54545,-1.45455 l -132.36364,132.36364 q 1.45455,3.63636 1.45455,6.90909 v 7.63636 q 0,24 -17.09091,41.09091 -17.09091,17.09091 -41.090912,17.09091 z"
     id="path2"
     style="stroke-width:0.727273;fill:#ffc89f;fill-opacity:1" />
</svg>
