<?xml version="1.0" encoding="UTF-8" standalone="no"?>
<svg
   height="32"
   viewBox="0 -960 1280 1280"
   width="32"
   version="1.1"
   id="svg4"
   sodipodi:docname="no_traceable32.svg"
   inkscape:version="1.2.2 (b0a8486541, 2022-12-01)"
   xmlns:inkscape="http://www.inkscape.org/namespaces/inkscape"
   xmlns:sodipodi="http://sodipodi.sourceforge.net/DTD/sodipodi-0.dtd"
   xmlns="http://www.w3.org/2000/svg"
   xmlns:svg="http://www.w3.org/2000/svg">
  <defs
     id="defs8" />
  <sodipodi:namedview
     id="namedview6"
     pagecolor="#ffffff"
     bordercolor="#000000"
     borderopacity="0.25"
     inkscape:showpageshadow="2"
     inkscape:pageopacity="0.0"
     inkscape:pagecheckerboard="0"
     inkscape:deskcolor="#d1d1d1"
     showgrid="false"
     inkscape:zoom="7.792906"
     inkscape:cx="7.0577009"
     inkscape:cy="19.697402"
     inkscape:window-width="1366"
     inkscape:window-height="707"
     inkscape:window-x="0"
     inkscape:window-y="0"
     inkscape:window-maximized="1"
     inkscape:current-layer="svg4" />
  <path
     d="M 581.55252,320 V 203.10502 Q 398.90411,182.6484 268.12787,51.872147 137.3516,-78.904107 116.89498,-261.55252 H 0 V -378.44748 H 116.89498 Q 137.3516,-561.09591 268.12787,-691.87215 398.90411,-822.6484 581.55252,-843.10503 V -960 h 116.89496 v 116.89497 q 182.64843,20.45663 313.42462,151.23288 130.7763,130.77626 151.2329,313.42467 H 1280 v 116.89496 H 1163.105 Q 1142.6484,-78.904107 1011.8721,51.872147 881.09591,182.6484 698.44748,203.10502 V 320 Z M 640,89.132427 q 169.49772,0 289.31507,-119.817374 Q 1049.1324,-150.50228 1049.1324,-320 q 0,-169.49772 -119.81733,-289.31507 Q 809.49772,-729.13243 640,-729.13243 q -169.49772,0 -289.31505,119.81736 Q 230.86759,-489.49772 230.86759,-320 q 0,169.49772 119.81736,289.315053 Q 470.50228,89.132427 640,89.132427 Z m 0,-175.342467 q -96.43836,0 -165.11416,-68.6758 -68.6758,-68.6758 -68.6758,-165.11416 0,-96.43836 68.6758,-165.11416 68.6758,-68.6758 165.11416,-68.6758 96.43836,0 165.11416,68.6758 68.6758,68.6758 68.6758,165.11416 0,96.43836 -68.6758,165.11416 -68.6758,68.6758 -165.11416,68.6758 z m 0,-116.89499 q 48.21919,0 82.55708,-34.33789 34.33791,-34.33791 34.33791,-82.55708 0,-48.21919 -34.33791,-82.55708 -34.33789,-34.33791 -82.55708,-34.33791 -48.21917,0 -82.55708,34.33791 -34.33789,34.33789 -34.33789,82.55708 0,48.21917 34.33789,82.55708 34.33791,34.33789 82.55708,34.33789 z M 640,-320 Z"
     id="path2"
     style="fill:#ffc89f;fill-opacity:1;stroke-width:1.46119" />
</svg>
