<?xml version="1.0" encoding="UTF-8" standalone="no"?>
<svg
   viewBox="0 0 128 129.08489"
   version="1.1"
   id="svg25"
   sodipodi:docname="araña1.svg"
   width="128"
   height="129.08488"
   inkscape:version="1.2.2 (b0a8486541, 2022-12-01)"
   xmlns:inkscape="http://www.inkscape.org/namespaces/inkscape"
   xmlns:sodipodi="http://sodipodi.sourceforge.net/DTD/sodipodi-0.dtd"
   xmlns="http://www.w3.org/2000/svg"
   xmlns:svg="http://www.w3.org/2000/svg">
  <sodipodi:namedview
     id="namedview27"
     pagecolor="#ffffff"
     bordercolor="#000000"
     borderopacity="0.25"
     inkscape:showpageshadow="2"
     inkscape:pageopacity="0.0"
     inkscape:pagecheckerboard="0"
     inkscape:deskcolor="#d1d1d1"
     showgrid="false"
     inkscape:zoom="2.3816344"
     inkscape:cx="18.054828"
     inkscape:cy="63.191899"
     inkscape:window-width="1366"
     inkscape:window-height="707"
     inkscape:window-x="0"
     inkscape:window-y="0"
     inkscape:window-maximized="1"
     inkscape:current-layer="svg25" />
  <defs
     id="defs4">
    <style
       id="style2">.cls-1{fill:#00536f;}</style>
  </defs>
  <g
     id="Capa_2"
     data-name="Capa 2"
     style="fill:#e5723a;fill-opacity:1"
     transform="matrix(0.20567243,0,0,0.20403348,-0.06674778,0.447606)">
    <path
       class="cls-1"
       d="m 595.46,297.37 -30.23,37 -41.9,4.85 -65.33,-21.65 68.15,-14.25 85.06,-69.7 -15.61,-86.37 c -3.37,-20.73 -32.14,-16.05 -28.76,4.68 l 12.72,70.63 -67.21,54.23 -52.66,10.56 -31.49,20.34 h -0.11 l -6,4 2.68,36.3 4,118.5 -106.42,111.82 -53.59,20.32 c -26.74,7.86 -17.68,34.2 1,28.34 l 69,-25.93 119.5,-122.53 -2.94,-85.95 31.89,36 1.61,52.79 -31.9,72.9 c -11.48,24.33 15.21,36.92 26.68,12.59 l 34.6,-81.52 -2.37,-68.32 -62.11,-70.05 68,22 57.88,-7.27 38,-45.84 c 15.14,-18.16 -6.99,-36.63 -22.14,-18.47 z"
       id="path6"
       style="fill:#e5723a;fill-opacity:1" />
    <path
       class="cls-1"
       d="m 274.56,199.7 36.37,1.43 3.75,-6.09 v -0.11 l 19.26,-32.12 8.75,-53 51.9,-69 71,10.31 c 20.83,2.66 24.53,-26.25 3.7,-28.91 l -86.86,-12.67 -66.75,87.39 -11.92,68.59 -23.9,-64.58 3.41,-42 36,-31.48 C 336.9,11.69 317.68,-9.79 300.06,5.98 l -44.53,39.5 -5.29,58.09 24.33,67.23 -72.13,-59.67 h -68.36 l -80.3,37.36 C 29.86,160.75 43.35,187 67.27,174.68 l 71.73,-34.36 52.82,-0.19 37,30.63 h -86 L 24.53,294.37 1,364.21 c -5.23,18.83 21.41,27 28.35,0 L 47.8,310 156,199.7 Z"
       id="path8"
       style="fill:#e5723a;fill-opacity:1" />
    <path
       class="cls-1"
       d="m 448.72,131.34 20.14,3.78 c 4.2,-7.11 9.19,-13.17 19.05,-17.56 a 2.92,2.92 0 0 0 -1.08,-5.58 c -17.62,-0.45 -28.03,6.11 -38.11,19.36 z"
       id="path10"
       style="fill:#e5723a;fill-opacity:1" />
    <path
       class="cls-1"
       d="m 491.17,173.15 c 13.4,-10.19 19.95,-20.72 19.35,-38.68 a 2.79,2.79 0 0 0 -5.33,-1 c -4.41,10.2 -10.56,15.3 -17.79,19.57 z"
       id="path12"
       style="fill:#e5723a;fill-opacity:1" />
    <path
       class="cls-1"
       d="m 360.4,151 -35.4,60.56 85.8,85.2 58.3,-34.3 c 16.61,-39.85 19.78,-78.33 6,-115.06 -36.71,-15.12 -75.01,-13.21 -114.7,3.6 z"
       id="path14"
       style="fill:#e5723a;fill-opacity:1" />
    <circle
       class="cls-1"
       cx="185.75"
       cy="318.95999"
       r="16.110001"
       transform="rotate(-31.72,185.72464,318.94664)"
       id="circle16"
       style="fill:#e5723a;fill-opacity:1" />
    <circle
       class="cls-1"
       cx="323.57999"
       cy="415.92999"
       r="16.110001"
       transform="rotate(-9.22,323.46517,415.84477)"
       id="circle18"
       style="fill:#e5723a;fill-opacity:1" />
    <circle
       class="cls-1"
       cx="220.91"
       cy="401.10999"
       r="16.110001"
       id="circle20"
       style="fill:#e5723a;fill-opacity:1" />
    <path
       class="cls-1"
       d="m 385.54,462.09 c 26.33,-49.72 31.06,-100 15.68,-151 l -94.87,-94 c -62.22,-7.17 -110.54,0.35 -145.92,21.54 L 85,317.55 C 58.89,369.85 53.94,422.14 67.2,474.43 l 63.36,-63.12 -7.32,-43.49 32.42,-31.82 a 34.56,34.56 0 1 1 14.15,13.65 l -25.73,26.11 7.92,41.46 -78.42,78.45 a 293.59,293.59 0 0 0 11.25,27.7 L 190.72,417.2 a 34.25,34.25 0 1 1 13.33,13.67 l -102.68,104.5 a 163,163 0 0 0 27.33,13.29 l 86.48,-85.76 45.68,2.44 31.93,-33.34 a 34.59,34.59 0 1 1 13.65,14.15 l -37.28,38.71 -45.61,-3.86 -73.82,74.2 c 47.78,11.88 104.21,6.72 155.24,-16.85 z"
       id="path22"
       style="fill:#e5723a;fill-opacity:1" />
  </g>
</svg>
